<svg width="480" height="560" viewBox="0 0 480 560" fill="none" xmlns="http://www.w3.org/2000/svg">
  <rect width="480" height="560" fill="#F5F5F5"/>
  <path d="M320 166C320 121.817 284.183 86 240 86C195.817 86 160 121.817 160 166V210C160 254.183 195.817 290 240 290C284.183 290 320 254.183 320 210V166Z" fill="#B9B9B9"/>
  <path d="M138 448C138 374.036 197.964 314 271.928 314H208.072C282.036 314 342 374.036 342 448V560H138V448Z" fill="#D2D2D2"/>
  <path d="M161.312 154.478C176.095 117.744 204.355 98 240.501 98C276.647 98 308.93 118.057 317.701 154.478C304.652 138.291 286.039 128.794 261.863 126.377L271.45 110.727L247.558 121.5C218.424 123.859 186.514 135.228 161.312 154.478Z" fill="#A6A6A6"/>
  <rect x="118" y="438" width="244" height="122" fill="#EFEFEF" fill-opacity="0.75"/>
</svg>