<svg width="520" height="220" viewBox="0 0 520 220" fill="none" xmlns="http://www.w3.org/2000/svg">
  <rect width="520" height="220" fill="white"/>
  <path d="M93.477 43H153.373L187.955 87.2422L222.943 43H281.014L214.971 124.113V176H160.705V123.105L93.477 43Z" fill="#B56D24"/>
  <path d="M157.135 25C182.842 25 201.952 35.9602 214.465 57.8807L187.412 75.875C180.995 63.2358 170.902 56.9162 157.135 56.9162C133.039 56.9162 116.78 74.0334 116.78 100.95C116.78 128.057 133.039 145.174 157.135 145.174C171.513 145.174 182.216 138.539 188.633 125.394L215.686 143.388C203.173 165.309 183.247 176.269 156.525 176.269C112.495 176.269 77 145.933 77 100.95C77 55.9669 112.495 25 157.135 25Z" fill="#6D5ED3"/>
  <path d="M279.705 49.251L316.116 31L354.341 61.9516L388.254 41.7016L444 86.2631L420.374 115.25L387.443 89.1868L353.53 109.437L315.915 78.9927L293.928 90.1323L279.705 49.251Z" fill="#111111"/>
  <text x="165" y="150" fill="#2A2A2A" font-family="Georgia, serif" font-size="78" font-weight="700">Group&apos;s</text>
  <text x="246" y="177" fill="#3C3C3C" font-family="Georgia, serif" font-size="18" font-style="italic">Save money. Live better.</text>
</svg>